<?xml version="1.0" standalone="no"?>
<svg xmlns="http://www.w3.org/2000/svg" viewBox="214.12 201.16 209.50 183.30" preserveAspectRatio="xMidYMid meet">
<g transform="translate(0.000000,591.000000) scale(0.100000,-0.100000)" fill="#000000" stroke="none">
<path d="M4086 3768 c-46 -32 -273 -199 -305 -225 -27 -23 -5 -23 30 0 58 39
109 69 109 64 0 -5 -197 -168 -327 -271 -40 -31 -73 -54 -73 -52 0 3 27 36 60
72 33 37 59 69 56 71 -2 3 -45 -25 -94 -61 -49 -36 -93 -66 -97 -66 -4 0 12 21
34 46 43 49 50 64 27 64 -27 0 -231 -63 -319 -98 -151 -62 -134 -75 129 -96
235 -19 272 -31 258 -81 -5 -15 3 -11 31 15 l36 35 -11 -29 c-6 -16 -19 -40
-28 -55 -10 -14 -29 -44 -42 -66 -27 -45 -18 -41 54 24 42 39 40 29 -8 -34
-52 -69 -97 -118 -170 -183 -83 -75 -128 -102 -75 -46 50 53 109 133 109 147
0 6 -26 -14 -57 -45 -78 -77 -252 -205 -422 -310 -77 -49 -143 -88 -146 -88
-4 0 41 36 100 80 144 109 225 174 220 178 -5 5 -286 -165 -450 -272 -110 -73
-331 -228 -455 -320 -20 -15 -9 -1 99 129 82 99 259 331 297 390 l19 30 -40
-31 c-22 -18 -49 -42 -60 -54 -11 -12 -29 -27 -40 -32 -19 -10 -19 -10 1 13
12 13 47 56 79 94 109 130 219 255 222 251 2 -2 -13 -35 -33 -72 l-37 -69 66
65 c37 35 67 61 67 57 0 -7 -69 -133 -113 -207 l-21 -35 21 15 c12 8 63 46
115 84 67 50 84 59 59 32 -19 -19 -33 -38 -30 -40 6 -6 236 147 272 182 17 16
26 34 23 44 -3 14 2 18 24 18 17 0 33 -7 38 -17 9 -14 11 -14 22 6 15 30 6 39
-57 50 -140 27 -390 24 -523 -6 -15 -4 2 13 45 42 103 71 116 84 113 120 -3
26 -17 39 -112 103 -60 39 -106 72 -103 72 3 0 18 -5 34 -11 203 -78 188 -62
-52 57 -93 46 -165 84 -160 84 6 -1 57 -14 115 -30 178 -51 310 -81 333 -78
15 3 2 11 -43 26 -57 20 -127 54 -78 39 9 -3 61 -11 116 -17 107 -12 256 -1
315 23 28 12 19 13 -88 10 l-120 -3 91 24 c95 25 368 115 489 160 89 33 65 15
-87 -70 -65 -36 -120 -69 -123 -74 -7 -11 130 39 273 99 61 27 112 47 112 45
0 -1 -27 -19 -60 -40 -33 -20 -59 -39 -57 -41 6 -5 135 52 297 130 74 36 139
66 145 66 5 1 -12 -14 -39 -31z"/>
</g>
</svg>
